<svg t="1564453639622" class="icon" viewBox="0 0 1024 1024" version="1.1" xmlns="http://www.w3.org/2000/svg" p-id="962" width="300" height="300"><path d="M950.67370885 932.86776573H24.76462591a63.53484496 63.53484496 0 0 1-63.1301648-63.93952629V315.32525581c0-35.28814381 28.32763767-63.93952629 63.1301648-63.93952629h189.3904944C277.28528511 251.38572952 298.32867298 123.50667816 340.41544992 123.50667816h273.56404707c62.56361164 0 86.60163593 127.87905138 147.30371747 127.87905136h189.39049439c34.80252714 0 63.13016479 28.57044598 63.13016482 63.85858979v553.68392013c0 35.28814381-28.32763767 63.93952629-63.13016482 63.93952629zM487.71916738 315.24431931c-139.45291571 0-252.5206592 114.36272162-252.5206592 255.59623212 0 141.15257401 113.06774349 255.59623094 252.5206592 255.59623094s252.5206592-114.44365813 252.52065921-255.59623094c0-141.23350931-113.06774349-255.59623094-252.52065921-255.59623212z m305.12912948 0a31.72695422 31.72695422 0 0 0-31.5650824 31.88882723c0 17.64407131 14.24475474 31.96976255 31.5650824 31.96976255 17.48219948 0 31.56508241-14.32569124 31.56508241-31.96976255a31.80789073 31.80789073 0 0 0-31.56508241-31.88882723zM487.71916738 762.49725609c-104.56945207 0-189.3904944-85.79227563-189.3904944-191.65670466 0-105.86443021 84.82104233-191.73764115 189.3904944-191.73764234 104.56945207 0 189.3904944 85.79227563 189.3904944 191.73764234 0 105.7834937-84.82104233 191.65670585-189.3904944 191.65670466zM66.85140165 187.44620445c0-11.73573616 9.46952472-21.36713271 21.04338906-21.36713271h63.1301648c11.57386316 0 21.04338787 9.46952472 21.04338786 21.36713271v21.20525967H66.85140165V187.44620445z" fill="#3C8CFF" p-id="963"></path></svg>